# xmcd CD database file
#
# Track frame offsets:
#	150
#	81374
#	120198
#	183430
#
# Disc length: 3093 seconds
#
# Revision: 0
# Processed by: cddbd v1.5.2PL0 Copyright (c) Steve Scherf et al.
# Submitted via: CDex 1.70beta2
#
DISCID=270c1304
DTITLE=Marula - In All
DYEAR=2008
DGENRE=Jazz
TTITLE0=Al Hadji
TTITLE1=Take Seven
TTITLE2=Yanabi - Vom F zum F und zurück
TTITLE3=C-Major Thing
EXTD=YEAR: 2008
EXTT0=
EXTT1=
EXTT2=
EXTT3=
PLAYORDER=
